<svg xmlns="http://www.w3.org/2000/svg" version="1.1" xmlns:xlink="http://www.w3.org/1999/xlink" xmlns:svgjs="http://svgjs.dev/svgjs" viewBox="0 0 16.150202645665367 4.978686684202798"><g transform="matrix(1,0,0,1,4.58326336541752,0.803474592101399)"><rect width="16.150202645665367" height="4.978686684202798" x="-4.583263365417519" y="-0.803474592101399" fill="#152238"></rect><path d="M917 625Q919 625 919 619Q919 613 917 613Q880 613 847.5 581.5Q815 550 794 495L609 1Q608 -3 598 -3Q588 -3 587 1L459 272L358 1Q357 -3 347 -3Q337 -3 336 1L81 542Q66 574 56.5 588Q47 602 35.5 607.5Q24 613 5 613Q2 613 2 619Q2 625 5 625Q20 625 26 624Q46 622 78 622Q145 622 191 624Q204 625 223 625Q226 625 226 619Q226 613 223 613Q198 613 187.5 608Q177 603 177 590Q177 573 200 524L380 142L443 307L332 542Q315 578 300 595.5Q285 613 268 613Q265 613 265 619Q265 625 268 625Q278 625 291.5 623.5Q305 622 330 622Q387 622 425 624Q435 625 451 625Q454 625 454 619Q454 613 451 613Q437 613 430.5 609.5Q424 606 424 597Q424 580 451 524L495 431L520 498Q542 555 542 584Q542 613 517 613Q514 613 514 619Q514 625 517 625Q525 625 534.5 623.5Q544 622 582 622Q599 622 623 624L660 625Q662 625 662 619Q662 613 660 613Q593 613 549 495L512 396L632 143L761 488Q773 520 773 546Q773 577 757.5 595Q742 613 716 613Q713 613 713 619Q713 625 716 625L762 624Q798 622 828 622Q848 622 874 624L917 625Z" fill="#ffffff" transform="matrix(0.0015,0,0,-0.0015,0,0.9405)" fill-rule="nonzero"></path><path d="M717 12Q722 12 722 6Q722 0 717 0Q697 0 655 2Q611 4 592 4Q567 4 531 2Q497 0 477 0Q473 0 473 6Q473 12 477 12Q503 12 514.5 17.5Q526 23 526 37Q526 54 506 94L402 299L224 299L153 142Q140 113 140 88Q140 52 165.5 32Q191 12 234 12Q239 12 239 6Q239 0 234 0Q216 0 182 2Q144 4 116 4Q89 4 51 2Q17 0 -4 0Q-8 0 -8 6Q-8 12 -4 12Q24 12 43 23.5Q62 35 81 64.5Q100 94 126 152L343 629Q345 632 352 632Q360 632 361 629L611 137Q646 66 669 39Q692 12 717 12ZM237 327L388 327L308 485Z" fill="#ffffff" transform="matrix(0.0015,0,0,-0.0015,1.2329999999999999,0.9405)" fill-rule="nonzero"></path><path d="M174 524Q174 488 192.5 460Q211 432 238 411Q265 390 311 360Q361 328 391 304Q421 280 442 245.5Q463 211 463 166Q463 114 435 73.5Q407 33 357.5 10.5Q308 -12 247 -12Q202 -12 153 0.5Q104 13 87 28Q82 32 79.5 35.5Q77 39 77 47L74 206L74 207Q74 211 79 211.5Q84 212 85 208Q115 147 137.5 109Q160 71 194.5 42Q229 13 273 13Q313 13 339 34.5Q365 56 365 108Q365 152 345.5 185Q326 218 298 241Q270 264 221 296Q173 327 146.5 349Q120 371 101 402Q82 433 82 475Q82 528 112.5 564.5Q143 601 191 618.5Q239 636 292 636Q327 636 363 629.5Q399 623 421 614Q430 610 433 605.5Q436 601 436 594L436 447Q436 444 431 442.5Q426 441 425 444L417 463Q392 526 358.5 570Q325 614 265 614Q225 614 199.5 591Q174 568 174 524Z" fill="#ffffff" transform="matrix(0.0015,0,0,-0.0015,2.322,0.9405)" fill-rule="nonzero"></path><path d="M717 12Q722 12 722 6Q722 0 717 0Q697 0 655 2Q611 4 592 4Q567 4 531 2Q497 0 477 0Q473 0 473 6Q473 12 477 12Q503 12 514.5 17.5Q526 23 526 37Q526 54 506 94L402 299L224 299L153 142Q140 113 140 88Q140 52 165.5 32Q191 12 234 12Q239 12 239 6Q239 0 234 0Q216 0 182 2Q144 4 116 4Q89 4 51 2Q17 0 -4 0Q-8 0 -8 6Q-8 12 -4 12Q24 12 43 23.5Q62 35 81 64.5Q100 94 126 152L343 629Q345 632 352 632Q360 632 361 629L611 137Q646 66 669 39Q692 12 717 12ZM237 327L388 327L308 485Z" fill="#ffffff" transform="matrix(0.0015,0,0,-0.0015,3.1095,0.9405)" fill-rule="nonzero"></path><path d="M213 85Q213 59 217 47.5Q221 36 232.5 32Q244 28 270 28L304 28Q382 28 439 69.5Q496 111 515 182Q515 184 519 184Q521 184 523.5 182.5Q526 181 526 180Q517 81 517 15Q517 7 513.5 3.5Q510 0 502 0L30 0Q28 0 28 6Q28 12 30 12Q62 12 76.5 17Q91 22 96.5 36.5Q102 51 102 81L102 544Q102 574 96.5 588Q91 602 76 607.5Q61 613 30 613Q28 613 28 619Q28 625 30 625L81 624Q127 622 157 622Q187 622 233 624L284 625Q287 625 287 619Q287 613 284 613Q253 613 238 607.5Q223 602 218 587.5Q213 573 213 543Z" fill="#ffffff" transform="matrix(0.0015,0,0,-0.0015,4.1985,0.9405)" fill-rule="nonzero"></path><path d="M717 12Q722 12 722 6Q722 0 717 0Q697 0 655 2Q611 4 592 4Q567 4 531 2Q497 0 477 0Q473 0 473 6Q473 12 477 12Q503 12 514.5 17.5Q526 23 526 37Q526 54 506 94L402 299L224 299L153 142Q140 113 140 88Q140 52 165.5 32Q191 12 234 12Q239 12 239 6Q239 0 234 0Q216 0 182 2Q144 4 116 4Q89 4 51 2Q17 0 -4 0Q-8 0 -8 6Q-8 12 -4 12Q24 12 43 23.5Q62 35 81 64.5Q100 94 126 152L343 629Q345 632 352 632Q360 632 361 629L611 137Q646 66 669 39Q692 12 717 12ZM237 327L388 327L308 485Z" fill="#ffffff" transform="matrix(0.0015,0,0,-0.0015,0,2.2905)" fill-rule="nonzero"></path><path d="M213 85Q213 59 217 47.5Q221 36 232.5 32Q244 28 270 28L304 28Q382 28 439 69.5Q496 111 515 182Q515 184 519 184Q521 184 523.5 182.5Q526 181 526 180Q517 81 517 15Q517 7 513.5 3.5Q510 0 502 0L30 0Q28 0 28 6Q28 12 30 12Q62 12 76.5 17Q91 22 96.5 36.5Q102 51 102 81L102 544Q102 574 96.5 588Q91 602 76 607.5Q61 613 30 613Q28 613 28 619Q28 625 30 625L81 624Q127 622 157 622Q187 622 233 624L284 625Q287 625 287 619Q287 613 284 613Q253 613 238 607.5Q223 602 218 587.5Q213 573 213 543Z" fill="#ffffff" transform="matrix(0.0015,0,0,-0.0015,1.089,2.2905)" fill-rule="nonzero"></path><path d="M477 483Q477 481 471.5 480Q466 479 465 482Q449 540 411 568Q373 596 311 596L281 596Q251 596 237 583Q223 570 223 543L223 327L295 327Q353 327 383.5 347.5Q414 368 414 404Q414 406 420 406Q426 406 426 404L425 313Q425 281 426 265L427 212Q427 209 421 209Q415 209 415 212Q415 252 383.5 275.5Q352 299 294 299L223 299L223 85Q223 54 231 39Q239 24 261 18Q283 12 330 12Q332 12 332 6Q332 0 330 0Q289 0 266 1L164 2L89 1Q69 0 34 0Q31 0 31 6Q31 12 34 12Q69 12 85 17Q101 22 106.5 36.5Q112 51 112 81L112 544Q112 574 107 588Q102 602 87 607.5Q72 613 41 613Q38 613 38 619Q38 625 41 625L465 625Q475 625 475 616Z" fill="#ffffff" transform="matrix(0.0015,0,0,-0.0015,1.9215,2.2905)" fill-rule="nonzero"></path><path d="M717 12Q722 12 722 6Q722 0 717 0Q697 0 655 2Q611 4 592 4Q567 4 531 2Q497 0 477 0Q473 0 473 6Q473 12 477 12Q503 12 514.5 17.5Q526 23 526 37Q526 54 506 94L402 299L224 299L153 142Q140 113 140 88Q140 52 165.5 32Q191 12 234 12Q239 12 239 6Q239 0 234 0Q216 0 182 2Q144 4 116 4Q89 4 51 2Q17 0 -4 0Q-8 0 -8 6Q-8 12 -4 12Q24 12 43 23.5Q62 35 81 64.5Q100 94 126 152L343 629Q345 632 352 632Q360 632 361 629L611 137Q646 66 669 39Q692 12 717 12ZM237 327L388 327L308 485Z" fill="#ffffff" transform="matrix(0.0015,0,0,-0.0015,2.685,2.2905)" fill-rule="nonzero"></path><path d="M213 85Q213 59 217 47.5Q221 36 232.5 32Q244 28 270 28L304 28Q382 28 439 69.5Q496 111 515 182Q515 184 519 184Q521 184 523.5 182.5Q526 181 526 180Q517 81 517 15Q517 7 513.5 3.5Q510 0 502 0L30 0Q28 0 28 6Q28 12 30 12Q62 12 76.5 17Q91 22 96.5 36.5Q102 51 102 81L102 544Q102 574 96.5 588Q91 602 76 607.5Q61 613 30 613Q28 613 28 619Q28 625 30 625L81 624Q127 622 157 622Q187 622 233 624L284 625Q287 625 287 619Q287 613 284 613Q253 613 238 607.5Q223 602 218 587.5Q213 573 213 543Z" fill="#ffffff" transform="matrix(0.0015,0,0,-0.0015,3.774,2.2905)" fill-rule="nonzero"></path><path d="M717 12Q722 12 722 6Q722 0 717 0Q697 0 655 2Q611 4 592 4Q567 4 531 2Q497 0 477 0Q473 0 473 6Q473 12 477 12Q503 12 514.5 17.5Q526 23 526 37Q526 54 506 94L402 299L224 299L153 142Q140 113 140 88Q140 52 165.5 32Q191 12 234 12Q239 12 239 6Q239 0 234 0Q216 0 182 2Q144 4 116 4Q89 4 51 2Q17 0 -4 0Q-8 0 -8 6Q-8 12 -4 12Q24 12 43 23.5Q62 35 81 64.5Q100 94 126 152L343 629Q345 632 352 632Q360 632 361 629L611 137Q646 66 669 39Q692 12 717 12ZM237 327L388 327L308 485Z" fill="#ffffff" transform="matrix(0.0015,0,0,-0.0015,4.6065000000000005,2.2905)" fill-rule="nonzero"></path><path d="M732 12Q735 12 735 6Q735 0 732 0Q697 0 676 1L599 2L509 1Q491 0 460 0Q457 0 457 6Q457 12 460 12Q497 12 514 17Q531 22 537 36Q543 50 543 81L543 311L220 311L220 81Q220 51 226 36.5Q232 22 249 17Q266 12 303 12Q305 12 305 6Q305 0 303 0Q268 0 247 1L160 2L85 1Q65 0 30 0Q28 0 28 6Q28 12 30 12Q65 12 81 17Q97 22 103 36.5Q109 51 109 81L109 544Q109 574 103 588Q97 602 81.5 607.5Q66 613 32 613Q29 613 29 619Q29 625 32 625L86 624Q132 622 160 622Q198 622 248 624L303 625Q305 625 305 619Q305 613 303 613Q267 613 250 607Q233 601 226.5 586.5Q220 572 220 542L220 339L543 339L543 542Q543 572 537 586.5Q531 601 514 607Q497 613 460 613Q457 613 457 619Q457 625 460 625L509 624Q559 622 599 622Q626 622 676 624L732 625Q735 625 735 619Q735 613 732 613Q698 613 681.5 607.5Q665 602 659.5 588Q654 574 654 544L654 81Q654 51 659.5 36.5Q665 22 681 17Q697 12 732 12Z" fill="#ffffff" transform="matrix(0.0015,0,0,-0.0015,5.695500000000001,2.2905)" fill-rule="nonzero"></path><path d="M456 493Q456 490 451 489.5Q446 489 445 492Q442 545 413 574.5Q384 604 336 604L275 604Q241 604 224 599Q207 594 200.5 581Q194 568 194 543L194 324L295 324Q348 324 370.5 340.5Q393 357 393 394Q393 396 399 396Q405 396 405 394L404 313Q404 284 405 269L406 221Q406 219 400 219Q394 219 394 221Q394 265 370.5 284Q347 303 292 303L194 303L194 85Q194 53 202.5 38.5Q211 24 236 18Q261 12 315 12Q318 12 318 6Q318 0 315 0Q274 0 251 1L161 2L93 1Q75 0 42 0Q40 0 40 6Q40 12 42 12Q80 12 98 17Q116 22 122.5 36.5Q129 51 129 81L129 544Q129 574 122.5 588Q116 602 98.5 607.5Q81 613 43 613Q41 613 41 619Q41 625 43 625L445 625Q454 625 454 616Z" fill="#fbe5c1" transform="matrix(0.00075,0,0,-0.00075,0,3.3717375)" fill-rule="nonzero"></path><path d="M699 12Q703 12 703 6Q703 0 699 0Q680 0 640 2Q600 4 582 4Q560 4 526 2Q494 0 477 0Q473 0 473 6Q473 12 477 12Q514 12 531 19Q548 26 548 43Q548 57 535 86L420 331L231 331L145 127Q131 93 131 71Q131 12 229 12Q234 12 234 6Q234 0 229 0Q211 0 177 2Q139 4 111 4Q85 4 51 2Q21 0 1 0Q-4 0 -4 6Q-4 12 1 12Q29 12 48.5 22.5Q68 33 85.5 59.5Q103 86 124 136L335 634Q337 637 342 637Q347 637 348 634L584 137Q618 63 642 37.5Q666 12 699 12ZM240 352L410 352L320 542Z" fill="#fbe5c1" transform="matrix(0.00075,0,0,-0.00075,0.372,3.3717375)" fill-rule="nonzero"></path><path d="M185 85Q185 56 191 43Q197 30 213 25.5Q229 21 265 21L374 21Q431 21 465 56Q499 91 510 153Q510 156 515.5 155.5Q521 155 521 152Q512 69 512 15Q512 7 509 3.5Q506 0 497 0L35 0Q33 0 33 6Q33 12 35 12Q73 12 90.5 17Q108 22 114 36.5Q120 51 120 81L120 544Q120 574 114 588Q108 602 90.5 607.5Q73 613 35 613Q33 613 33 619Q33 625 35 625L84 624Q126 622 152 622Q180 622 222 624L270 625Q273 625 273 619Q273 613 270 613Q233 613 215.5 607.5Q198 602 191.5 587.5Q185 573 185 543Z" fill="#fbe5c1" transform="matrix(0.00075,0,0,-0.00075,0.906,3.3717375)" fill-rule="nonzero"></path><path d="M699 12Q703 12 703 6Q703 0 699 0Q680 0 640 2Q600 4 582 4Q560 4 526 2Q494 0 477 0Q473 0 473 6Q473 12 477 12Q514 12 531 19Q548 26 548 43Q548 57 535 86L420 331L231 331L145 127Q131 93 131 71Q131 12 229 12Q234 12 234 6Q234 0 229 0Q211 0 177 2Q139 4 111 4Q85 4 51 2Q21 0 1 0Q-4 0 -4 6Q-4 12 1 12Q29 12 48.5 22.5Q68 33 85.5 59.5Q103 86 124 136L335 634Q337 637 342 637Q347 637 348 634L584 137Q618 63 642 37.5Q666 12 699 12ZM240 352L410 352L320 542Z" fill="#fbe5c1" transform="matrix(0.00075,0,0,-0.00075,1.31325,3.3717375)" fill-rule="nonzero"></path><path d="M722 12Q725 12 725 6Q725 0 722 0Q691 0 673 1L604 2L531 1Q513 0 483 0Q480 0 480 6Q480 12 483 12Q522 12 540 17Q558 22 564.5 36.5Q571 51 571 81L571 315L187 315L187 81Q187 51 193.5 36.5Q200 22 218 17Q236 12 275 12Q277 12 277 6Q277 0 275 0Q244 0 226 1L154 2L85 1Q67 0 35 0Q33 0 33 6Q33 12 35 12Q73 12 91.5 17Q110 22 116.5 36.5Q123 51 123 81L123 544Q123 574 116.5 588Q110 602 92 607.5Q74 613 36 613Q34 613 34 619Q34 625 36 625L87 624Q129 622 154 622Q183 622 227 624L275 625Q277 625 277 619Q277 613 275 613Q237 613 218.5 607Q200 601 193.5 586.5Q187 572 187 542L187 336L571 336L571 542Q571 572 564.5 586.5Q558 601 540 607Q522 613 483 613Q480 613 480 619Q480 625 483 625L531 624Q575 622 604 622Q631 622 673 624L722 625Q725 625 725 619Q725 613 722 613Q684 613 666 607.5Q648 602 641.5 588Q635 574 635 544L635 81Q635 51 641.5 36.5Q648 22 666 17Q684 12 722 12Z" fill="#fbe5c1" transform="matrix(0.00075,0,0,-0.00075,1.84725,3.3717375)" fill-rule="nonzero"></path><path d="M0 0 " fill="#fbe5c1" transform="matrix(0.00075,0,0,-0.00075,2.424,3.3717375)" fill-rule="nonzero"></path><path d="M935 625Q937 625 937 619Q937 613 935 613Q901 613 876 595Q851 577 833 534L620 1Q619 -3 609 -3Q601 -3 598 1L468 285L355 1Q354 -3 344 -3Q336 -3 333 1L84 542Q66 582 48 597.5Q30 613 -1 613Q-4 613 -4 619Q-4 625 -1 625L37 624Q65 622 82 622Q118 622 160 624L201 625Q204 625 204 619Q204 613 201 613Q171 613 156.5 606Q142 599 142 582Q142 567 152 546L365 89L455 313L350 542Q332 581 314 597Q296 613 267 613Q264 613 264 619Q264 625 267 625L304 624Q332 622 348 622Q376 622 406 624L433 625Q436 625 436 619Q436 613 433 613Q415 613 407.5 610Q400 607 400 598Q400 585 418 546L491 390L550 539Q561 569 561 584Q561 599 551 606Q541 613 519 613Q516 613 516 619Q516 625 519 625L542 624Q562 622 584 622Q604 622 630 624L671 625Q673 625 673 619Q673 613 671 613Q637 613 613.5 595.5Q590 578 572 534L504 363L631 89L810 537Q818 558 818 572Q818 593 800 603Q782 613 743 613Q740 613 740 619Q740 625 743 625L784 624Q818 622 846 622Q866 622 892 624L935 625Z" fill="#fbe5c1" transform="matrix(0.00075,0,0,-0.00075,2.6069999999999998,3.3717375)" fill-rule="nonzero"></path><path d="M199 81Q199 51 205 36.5Q211 22 228.5 17Q246 12 284 12Q287 12 287 6Q287 0 284 0Q254 0 236 1L165 2L96 1Q78 0 47 0Q44 0 44 6Q44 12 47 12Q85 12 102.5 17Q120 22 126.5 36.5Q133 51 133 81L133 544Q133 574 126.5 588Q120 602 102.5 607.5Q85 613 47 613Q44 613 44 619Q44 625 47 625L96 624Q138 622 165 622Q195 622 237 624L284 625Q287 625 287 619Q287 613 284 613Q247 613 229.5 607Q212 601 205.5 586.5Q199 572 199 542L199 81Z" fill="#fbe5c1" transform="matrix(0.00075,0,0,-0.00075,3.31275,3.3717375)" fill-rule="nonzero"></path><path d="M189 607Q126 607 94.5 575Q63 543 49 466Q49 464 43.5 464Q38 464 38 466Q42 502 47 560Q52 618 52 647Q52 652 57.5 652Q63 652 63 647Q63 625 117 625Q202 622 318 622Q377 622 443 624L511 625Q547 625 564.5 630Q582 635 587 650Q588 654 593 654Q598 654 598 650Q595 621 592 562Q589 503 589 466Q589 464 583 464Q577 464 577 466Q574 544 545 575.5Q516 607 449 607Q404 607 385 603Q366 599 359 586Q352 573 352 542L352 81Q352 50 359 36Q366 22 386 17Q406 12 449 12Q452 12 452 6Q452 0 449 0Q416 0 396 1L318 2L243 1Q223 0 188 0Q186 0 186 6Q186 12 188 12Q231 12 251 17Q271 22 278.5 36.5Q286 51 286 81L286 544Q286 575 279 587.5Q272 600 253 603.5Q234 607 189 607Z" fill="#fbe5c1" transform="matrix(0.00075,0,0,-0.00075,3.56925,3.3717375)" fill-rule="nonzero"></path><path d="M722 12Q725 12 725 6Q725 0 722 0Q691 0 673 1L604 2L531 1Q513 0 483 0Q480 0 480 6Q480 12 483 12Q522 12 540 17Q558 22 564.5 36.5Q571 51 571 81L571 315L187 315L187 81Q187 51 193.5 36.5Q200 22 218 17Q236 12 275 12Q277 12 277 6Q277 0 275 0Q244 0 226 1L154 2L85 1Q67 0 35 0Q33 0 33 6Q33 12 35 12Q73 12 91.5 17Q110 22 116.5 36.5Q123 51 123 81L123 544Q123 574 116.5 588Q110 602 92 607.5Q74 613 36 613Q34 613 34 619Q34 625 36 625L87 624Q129 622 154 622Q183 622 227 624L275 625Q277 625 277 619Q277 613 275 613Q237 613 218.5 607Q200 601 193.5 586.5Q187 572 187 542L187 336L571 336L571 542Q571 572 564.5 586.5Q558 601 540 607Q522 613 483 613Q480 613 480 619Q480 625 483 625L531 624Q575 622 604 622Q631 622 673 624L722 625Q725 625 725 619Q725 613 722 613Q684 613 666 607.5Q648 602 641.5 588Q635 574 635 544L635 81Q635 51 641.5 36.5Q648 22 666 17Q684 12 722 12Z" fill="#fbe5c1" transform="matrix(0.00075,0,0,-0.00075,4.05225,3.3717375)" fill-rule="nonzero"></path><path d="M0 0 " fill="#fbe5c1" transform="matrix(0.00075,0,0,-0.00075,4.629,3.3717375)" fill-rule="nonzero"></path><path d="M935 625Q937 625 937 619Q937 613 935 613Q901 613 876 595Q851 577 833 534L620 1Q619 -3 609 -3Q601 -3 598 1L468 285L355 1Q354 -3 344 -3Q336 -3 333 1L84 542Q66 582 48 597.5Q30 613 -1 613Q-4 613 -4 619Q-4 625 -1 625L37 624Q65 622 82 622Q118 622 160 624L201 625Q204 625 204 619Q204 613 201 613Q171 613 156.5 606Q142 599 142 582Q142 567 152 546L365 89L455 313L350 542Q332 581 314 597Q296 613 267 613Q264 613 264 619Q264 625 267 625L304 624Q332 622 348 622Q376 622 406 624L433 625Q436 625 436 619Q436 613 433 613Q415 613 407.5 610Q400 607 400 598Q400 585 418 546L491 390L550 539Q561 569 561 584Q561 599 551 606Q541 613 519 613Q516 613 516 619Q516 625 519 625L542 624Q562 622 584 622Q604 622 630 624L671 625Q673 625 673 619Q673 613 671 613Q637 613 613.5 595.5Q590 578 572 534L504 363L631 89L810 537Q818 558 818 572Q818 593 800 603Q782 613 743 613Q740 613 740 619Q740 625 743 625L784 624Q818 622 846 622Q866 622 892 624L935 625Z" fill="#fbe5c1" transform="matrix(0.00075,0,0,-0.00075,4.811999999999999,3.3717375)" fill-rule="nonzero"></path><path d="M699 12Q703 12 703 6Q703 0 699 0Q680 0 640 2Q600 4 582 4Q560 4 526 2Q494 0 477 0Q473 0 473 6Q473 12 477 12Q514 12 531 19Q548 26 548 43Q548 57 535 86L420 331L231 331L145 127Q131 93 131 71Q131 12 229 12Q234 12 234 6Q234 0 229 0Q211 0 177 2Q139 4 111 4Q85 4 51 2Q21 0 1 0Q-4 0 -4 6Q-4 12 1 12Q29 12 48.5 22.5Q68 33 85.5 59.5Q103 86 124 136L335 634Q337 637 342 637Q347 637 348 634L584 137Q618 63 642 37.5Q666 12 699 12ZM240 352L410 352L320 542Z" fill="#fbe5c1" transform="matrix(0.00075,0,0,-0.00075,5.454,3.3717375)" fill-rule="nonzero"></path><path d="M145 508Q145 469 164 440Q183 411 210 391.5Q237 372 286 342Q338 311 367 290Q396 269 416.5 236.5Q437 204 437 159Q437 111 413 72Q389 33 342.5 10.5Q296 -12 231 -12Q154 -12 90 23Q85 26 83.5 30Q82 34 81 42L68 178Q67 182 72.5 183Q78 184 79 180Q95 108 138.5 56Q182 4 254 4Q304 4 338.5 31.5Q373 59 373 119Q373 164 353 197Q333 230 304.5 251.5Q276 273 227 302Q179 331 151.5 352Q124 373 105 405Q86 437 86 480Q86 530 112.5 565.5Q139 601 181.5 618.5Q224 636 272 636Q331 636 389 612Q404 607 404 595L411 480Q411 476 406 476Q401 476 400 480Q392 532 357 576.5Q322 621 256 621Q200 621 172.5 588.5Q145 556 145 508Z" fill="#fbe5c1" transform="matrix(0.00075,0,0,-0.00075,5.9879999999999995,3.3717375)" fill-rule="nonzero"></path><path d="M699 12Q703 12 703 6Q703 0 699 0Q680 0 640 2Q600 4 582 4Q560 4 526 2Q494 0 477 0Q473 0 473 6Q473 12 477 12Q514 12 531 19Q548 26 548 43Q548 57 535 86L420 331L231 331L145 127Q131 93 131 71Q131 12 229 12Q234 12 234 6Q234 0 229 0Q211 0 177 2Q139 4 111 4Q85 4 51 2Q21 0 1 0Q-4 0 -4 6Q-4 12 1 12Q29 12 48.5 22.5Q68 33 85.5 59.5Q103 86 124 136L335 634Q337 637 342 637Q347 637 348 634L584 137Q618 63 642 37.5Q666 12 699 12ZM240 352L410 352L320 542Z" fill="#fbe5c1" transform="matrix(0.00075,0,0,-0.00075,6.36375,3.3717375)" fill-rule="nonzero"></path><path d="M185 85Q185 56 191 43Q197 30 213 25.5Q229 21 265 21L374 21Q431 21 465 56Q499 91 510 153Q510 156 515.5 155.5Q521 155 521 152Q512 69 512 15Q512 7 509 3.5Q506 0 497 0L35 0Q33 0 33 6Q33 12 35 12Q73 12 90.5 17Q108 22 114 36.5Q120 51 120 81L120 544Q120 574 114 588Q108 602 90.5 607.5Q73 613 35 613Q33 613 33 619Q33 625 35 625L84 624Q126 622 152 622Q180 622 222 624L270 625Q273 625 273 619Q273 613 270 613Q233 613 215.5 607.5Q198 602 191.5 587.5Q185 573 185 543Z" fill="#fbe5c1" transform="matrix(0.00075,0,0,-0.00075,6.897749999999999,3.3717375)" fill-rule="nonzero"></path><path d="M0 0 " fill="#fbe5c1" transform="matrix(0.00075,0,0,-0.00075,7.305,3.3717375)" fill-rule="nonzero"></path><path d="M699 12Q703 12 703 6Q703 0 699 0Q680 0 640 2Q600 4 582 4Q560 4 526 2Q494 0 477 0Q473 0 473 6Q473 12 477 12Q514 12 531 19Q548 26 548 43Q548 57 535 86L420 331L231 331L145 127Q131 93 131 71Q131 12 229 12Q234 12 234 6Q234 0 229 0Q211 0 177 2Q139 4 111 4Q85 4 51 2Q21 0 1 0Q-4 0 -4 6Q-4 12 1 12Q29 12 48.5 22.5Q68 33 85.5 59.5Q103 86 124 136L335 634Q337 637 342 637Q347 637 348 634L584 137Q618 63 642 37.5Q666 12 699 12ZM240 352L410 352L320 542Z" fill="#fbe5c1" transform="matrix(0.00075,0,0,-0.00075,7.4879999999999995,3.3717375)" fill-rule="nonzero"></path><path d="M185 85Q185 56 191 43Q197 30 213 25.5Q229 21 265 21L374 21Q431 21 465 56Q499 91 510 153Q510 156 515.5 155.5Q521 155 521 152Q512 69 512 15Q512 7 509 3.5Q506 0 497 0L35 0Q33 0 33 6Q33 12 35 12Q73 12 90.5 17Q108 22 114 36.5Q120 51 120 81L120 544Q120 574 114 588Q108 602 90.5 607.5Q73 613 35 613Q33 613 33 619Q33 625 35 625L84 624Q126 622 152 622Q180 622 222 624L270 625Q273 625 273 619Q273 613 270 613Q233 613 215.5 607.5Q198 602 191.5 587.5Q185 573 185 543Z" fill="#fbe5c1" transform="matrix(0.00075,0,0,-0.00075,8.022,3.3717375)" fill-rule="nonzero"></path><path d="M456 493Q456 490 451 489.5Q446 489 445 492Q442 545 413 574.5Q384 604 336 604L275 604Q241 604 224 599Q207 594 200.5 581Q194 568 194 543L194 324L295 324Q348 324 370.5 340.5Q393 357 393 394Q393 396 399 396Q405 396 405 394L404 313Q404 284 405 269L406 221Q406 219 400 219Q394 219 394 221Q394 265 370.5 284Q347 303 292 303L194 303L194 85Q194 53 202.5 38.5Q211 24 236 18Q261 12 315 12Q318 12 318 6Q318 0 315 0Q274 0 251 1L161 2L93 1Q75 0 42 0Q40 0 40 6Q40 12 42 12Q80 12 98 17Q116 22 122.5 36.5Q129 51 129 81L129 544Q129 574 122.5 588Q116 602 98.5 607.5Q81 613 43 613Q41 613 41 619Q41 625 43 625L445 625Q454 625 454 616Z" fill="#fbe5c1" transform="matrix(0.00075,0,0,-0.00075,8.42925,3.3717375)" fill-rule="nonzero"></path><path d="M699 12Q703 12 703 6Q703 0 699 0Q680 0 640 2Q600 4 582 4Q560 4 526 2Q494 0 477 0Q473 0 473 6Q473 12 477 12Q514 12 531 19Q548 26 548 43Q548 57 535 86L420 331L231 331L145 127Q131 93 131 71Q131 12 229 12Q234 12 234 6Q234 0 229 0Q211 0 177 2Q139 4 111 4Q85 4 51 2Q21 0 1 0Q-4 0 -4 6Q-4 12 1 12Q29 12 48.5 22.5Q68 33 85.5 59.5Q103 86 124 136L335 634Q337 637 342 637Q347 637 348 634L584 137Q618 63 642 37.5Q666 12 699 12ZM240 352L410 352L320 542Z" fill="#fbe5c1" transform="matrix(0.00075,0,0,-0.00075,8.80125,3.3717375)" fill-rule="nonzero"></path><path d="M185 85Q185 56 191 43Q197 30 213 25.5Q229 21 265 21L374 21Q431 21 465 56Q499 91 510 153Q510 156 515.5 155.5Q521 155 521 152Q512 69 512 15Q512 7 509 3.5Q506 0 497 0L35 0Q33 0 33 6Q33 12 35 12Q73 12 90.5 17Q108 22 114 36.5Q120 51 120 81L120 544Q120 574 114 588Q108 602 90.5 607.5Q73 613 35 613Q33 613 33 619Q33 625 35 625L84 624Q126 622 152 622Q180 622 222 624L270 625Q273 625 273 619Q273 613 270 613Q233 613 215.5 607.5Q198 602 191.5 587.5Q185 573 185 543Z" fill="#fbe5c1" transform="matrix(0.00075,0,0,-0.00075,9.33525,3.3717375)" fill-rule="nonzero"></path><path d="M699 12Q703 12 703 6Q703 0 699 0Q680 0 640 2Q600 4 582 4Q560 4 526 2Q494 0 477 0Q473 0 473 6Q473 12 477 12Q514 12 531 19Q548 26 548 43Q548 57 535 86L420 331L231 331L145 127Q131 93 131 71Q131 12 229 12Q234 12 234 6Q234 0 229 0Q211 0 177 2Q139 4 111 4Q85 4 51 2Q21 0 1 0Q-4 0 -4 6Q-4 12 1 12Q29 12 48.5 22.5Q68 33 85.5 59.5Q103 86 124 136L335 634Q337 637 342 637Q347 637 348 634L584 137Q618 63 642 37.5Q666 12 699 12ZM240 352L410 352L320 542Z" fill="#fbe5c1" transform="matrix(0.00075,0,0,-0.00075,9.7425,3.3717375)" fill-rule="nonzero"></path><path d="M722 12Q725 12 725 6Q725 0 722 0Q691 0 673 1L604 2L531 1Q513 0 483 0Q480 0 480 6Q480 12 483 12Q522 12 540 17Q558 22 564.5 36.5Q571 51 571 81L571 315L187 315L187 81Q187 51 193.5 36.5Q200 22 218 17Q236 12 275 12Q277 12 277 6Q277 0 275 0Q244 0 226 1L154 2L85 1Q67 0 35 0Q33 0 33 6Q33 12 35 12Q73 12 91.5 17Q110 22 116.5 36.5Q123 51 123 81L123 544Q123 574 116.5 588Q110 602 92 607.5Q74 613 36 613Q34 613 34 619Q34 625 36 625L87 624Q129 622 154 622Q183 622 227 624L275 625Q277 625 277 619Q277 613 275 613Q237 613 218.5 607Q200 601 193.5 586.5Q187 572 187 542L187 336L571 336L571 542Q571 572 564.5 586.5Q558 601 540 607Q522 613 483 613Q480 613 480 619Q480 625 483 625L531 624Q575 622 604 622Q631 622 673 624L722 625Q725 625 725 619Q725 613 722 613Q684 613 666 607.5Q648 602 641.5 588Q635 574 635 544L635 81Q635 51 641.5 36.5Q648 22 666 17Q684 12 722 12Z" fill="#fbe5c1" transform="matrix(0.00075,0,0,-0.00075,10.2765,3.3717375)" fill-rule="nonzero"></path><g clip-path="url(&quot;#SvgjsClipPath1001&quot;)"><path d=" M -0.44702587476150546 1.2071133353234234 L -0.44806147961110865 2.1704612101925194 C -0.44864989145747414 2.707540007080814 -0.8814621091698558 2.870741916788664 -1.3121560442353233 3.0330965134377488 C -1.5861912093245216 3.1364687066071855 -1.8594261343026628 3.2394878526688036 -2.005846538152178 3.439571416906824 L -2.0164379513867514 3.4540463483274078 L -2.0534372882861947 3.4540463483274078 L -2.064028701520768 3.439571416906824 C -2.2104491053702833 3.239511389142658 -2.4836840303484244 3.1364687066071855 -2.7577898048591867 3.0330965134377483 C -3.188507276398509 2.8706948438409547 -3.6212959576370363 2.7075400070808135 -3.621860833009547 2.1704612101925194 L -3.622990583754568 1.128972242126126 L -3.552663599877 1.128972242126126 L -3.551533849131979 2.1704612101925194 C -3.550992510233323 2.6587724332540663 -3.140963599212201 2.81335999353113 -2.7329588249425756 2.9671943866448465 C -2.464831314790884 3.06840122421966 -2.1975746541718126 3.169090259369672 -2.034937619836473 3.362607147402257 C -1.8723241219749878 3.1690431864219626 -1.6050439248820623 3.0682364689026773 -1.336916414730371 2.9671943866448465 C -0.9289351769345999 2.81335999353113 -0.5188827294396239 2.658866579149485 -0.5183649270148218 2.1704612101925194 L -0.5173057856913648 1.2071133353234234 Z M -2.0616279811875984 1.85657879486747 C -2.0956381859075064 1.830829892470529 -2.1289893693594855 1.80376294753773 -2.162152261020628 1.7758016165984563 C -2.2633590985954415 1.880868435885425 -2.3759340530420303 1.994361312812344 -2.486484870737123 2.1039706715532525 C -2.632175643897145 2.2483434021774165 -2.746421687987411 2.363695660538849 -2.8548306865617343 2.466785416022031 C -2.9029627755944074 2.5125403211953885 -2.9140484547799277 2.5634261776690503 -2.90190363427095 2.6028497713755185 C -2.897077890477227 2.61888929759685 -2.8881544881981975 2.633393882392218 -2.8760135130308813 2.6449329866275577 C -2.8640933381399205 2.656213801005934 -2.849269648452986 2.6639556950150536 -2.8332006670893497 2.6672926367894347 C -2.7931886615365165 2.675671621481675 -2.7418791485334717 2.6578780472475914 -2.6914404850630476 2.597224554124267 C -2.5969886154845065 2.4834963124588025 -2.4966526274423133 2.3536455862029313 -2.359317302500677 2.1944919499980737 C -2.2587224132460832 2.077939331470056 -2.1556326577629017 1.9604687904617086 -2.0616279811875984 1.85657879486747 Z M -2.2175806569482295 1.646962958718333 C -2.191361025074196 1.6585193673809457 -2.1722258718304 1.6672513991810045 -2.1545029070178803 1.6753479461869896 C -2.0325604359771576 1.731058779800846 -1.9735780324975107 1.7259984379221054 -1.8185197427433546 1.7408734893982176 C -1.9380379569770527 1.7903000844928938 -2.010459687027681 1.7948190874729786 -2.0620045647692717 1.783003777597965 C -1.8719004654456048 1.9331900172642174 -1.6660504651132055 2.0437408349593102 -1.3606176439019606 2.037197695227729 L -1.359276064892248 2.0948385196976633 C -1.3949573592558333 2.0955916868610105 -1.4293441475574151 2.094909129119227 -1.4624364297969934 2.092790846472312 C -1.5795273974833077 2.1058608716932414 -1.6950850301094755 2.1301925279183953 -1.8075046729793982 2.1654479412614864 C -1.7816145517393296 2.1266598323490933 -1.7204197197173494 2.0876598951720076 -1.6498102981535259 2.0641234213174 C -1.7812278349067787 2.0298384147842867 -1.9049974289608769 1.9710678204463408 -2.014625642899946 1.890894973747487 C -2.111501769285512 1.9977505650474061 -2.2155094472490235 2.1161625650099376 -2.3156806799742338 2.2321738446392994 C -2.447131886452218 2.3845019034263206 -2.548691771134851 2.5158118910611775 -2.6469330130039834 2.6342003545498547 C -2.713235259852414 2.71401253739083 -2.7859629640631516 2.736254505183434 -2.8449924404905076 2.72387431993591 C -2.8714843076594 2.718353746854694 -2.8959263804513924 2.705594984857274 -2.915601862054331 2.6870162018795947 C -2.9350731263857646 2.668578093456803 -2.949406549647831 2.645386663289148 -2.9571908113554235 2.619725423129271 C -2.9750549950110705 2.561237285600571 -2.960862501276742 2.4879211695434678 -2.8946308638498754 2.4249375655085372 C -2.7858452816938786 2.321377080548263 -2.67174045644674 2.206307259873086 -2.527202970505594 2.063040743520088 C -2.417264101130721 1.9540668695732544 -2.305771824481444 1.841797889286775 -2.2060007118117615 1.738237404326501 C -2.236974711404425 1.7113352147106844 -2.2679487109970893 1.6838210767746475 -2.299275757697572 1.6558597458353739 C -2.596047156530321 1.3918981915559474 -2.926758150661415 1.09773934132106 -3.6161414698628764 1.0683187490028003 C -3.698183079581446 1.0637204868188466 -3.780466043165019 1.0660273386349397 -3.8621211581173824 1.0752149358422005 C -3.7807666301121143 0.988728093991071 -3.684116174993066 0.918035691258273 -3.5770473867903725 0.8667053139642302 C -3.272579561007167 0.7113645865238194 -2.924216211485118 0.6843211780648746 -2.5914810806025272 0.7443156499202699 C -2.367253765387227 0.7854251652307482 -2.1513928763160144 0.8634233133874618 -1.9526776437146198 0.9751378490124081 C -1.8582678295893045 1.0280406704320209 -1.7685986730605436 1.088990812834112 -1.6846678159322015 1.1573101566470712 C -1.6706871504625629 1.1405992602103008 -1.6571066050484538 1.1240531190905112 -1.6442792267976927 1.1078835615523963 C -1.630157342484928 1.0902547426352953 -1.6183891055576245 1.0749324981559454 -1.6097747561268378 1.0626935317515498 C -1.5923732259152863 1.0343108042820304 -1.570555361621139 1.0088857621329872 -1.5451435989220856 0.987376815416805 C -1.5258332031850839 0.9722043177600148 -1.5002057602456609 0.9677150967209709 -1.4768878247437227 0.9754202866986645 L -1.4420773799127575 0.9381855850606748 L -1.6414313134612852 0.7517296391844717 L -1.662166946927195 0.7323120482544212 L -1.6608724408651914 0.7308763233492899 C -1.664032444079862 0.7266258705426587 -1.666902545165724 0.7221673847462649 -1.6694632538221232 0.7175311426737272 C -1.6725749038104318 0.7118489967044033 -1.6752348799452927 0.7059309432919312 -1.67741858198498 0.6998317143350619 L -1.7005078628363504 0.6921588238584597 C -1.7138823512257275 0.6917590332556616 -1.7270958757609889 0.6891258745433371 -1.7396019459088534 0.6843682510125859 C -1.7538924437594314 0.6789688368844349 -1.766994972464118 0.6708387138260656 -1.7781782265565558 0.6604316571024489 L -1.7781782265565558 0.6604316571024489 C -1.80113649827542 0.6389080415420478 -1.8145847096371757 0.6091322788544327 -1.8155541470376728 0.5776774150296484 C -1.8166445181452904 0.5462359036837876 -1.805187945550963 0.5156511732989317 -1.783709297912388 0.49266367146680334 L -1.4086791235130685 0.09167276640585253 C -1.3871546343198222 0.06871887710943803 -1.3573774911551921 0.05527851129536909 -1.3259248814402675 0.05432038239858983 C -1.2944812402390067 0.053216960186355244 -1.2638916710296937 0.06467534533037522 -1.2409111378774247 0.08616523152387501 C -1.2229275626764506 0.1029651900794013 -1.2106350067708824 0.12495849793454461 -1.2057476459386405 0.14907822613724164 C -1.202324615551098 0.16610254635745836 -1.2026539257745323 0.1836684355928666 -1.2067126413666793 0.20055249445726897 L -0.5468205239050414 0.7994616081616179 L -0.5236135606843986 0.8057693831546526 C -0.5087705488768042 0.8051209130464043 -0.4939375004325197 0.807260448559358 -0.47988279226253683 0.8120771581476873 C -0.4641072587061026 0.8174948614494717 -0.4496654465538228 0.8262080881146803 -0.43751713932424297 0.8376377687537921 C -0.41456325002782846 0.8591622579470375 -0.40112288421375997 0.8889394011116671 -0.4001647553169807 0.9203920108265917 C -0.3990639225576653 0.9518238504713334 -0.41051286744927484 0.9824023563911561 -0.4319860679684102 1.0053822179155802 L -0.8069456329461677 1.4063966594503876 L -0.8069456329461677 1.4066320241889336 L -0.8069456329461677 1.4066320241889336 L -0.8069456329461677 1.4066320241889336 C -0.828459326647534 1.429483179062227 -0.8581648962659836 1.4428587276507567 -0.8895351197019865 1.4438196528792147 C -0.9209665338309656 1.444917876174999 -0.951544072367537 1.4334692934828235 -0.9745253267909741 1.4119983402277843 L -0.9747371550556654 1.4119983402277843 L -0.9747371550556654 1.4119983402277843 L -0.9747371550556654 1.4119983402277843 C -0.9926206921941376 1.3952189819131355 -1.004836532799383 1.3732880519107238 -1.0096888187297584 1.3492501009314002 L -1.0096888187297584 1.3492501009314002 C -1.0118525224254888 1.3384801605817556 -1.0125178340936594 1.3274629161719256 -1.0116658825335452 1.3165108657996414 C -1.0157991081681144 1.315689348855086 -1.0198847585939546 1.3146443651884767 -1.0239048489379408 1.3133805147769784 C -1.089336246253751 1.2929979284188873 -1.2441356347955064 1.1235353166657114 -1.2741211024862769 1.0954563033571643 L -1.3089315473172416 1.1326910049951535 C -1.299704458366941 1.1554515307664959 -1.30247853683787 1.181319370775665 -1.3163220001075882 1.201605800441445 C -1.3361187060247883 1.2283784450556667 -1.360048349809154 1.2518314027088695 -1.3872138593576668 1.2710854712602475 C -1.3998529458175915 1.2813473738608563 -1.415692992721742 1.2950691381180923 -1.4337454681682265 1.3110974768130799 C -1.448055644271828 1.3238542456422775 -1.4645311759700537 1.3388940524353719 -1.4824659690472646 1.3555108029767249 C -1.4777586742763429 1.3610497198238423 -1.473184752857264 1.3665964821622452 -1.468744204790028 1.3721510899919322 C -1.3979461722383903 1.4575542975496343 -1.341202858420142 1.55368900732292 -1.30064670852042 1.6569424236326862 C -1.2861247041521264 1.5966184411433266 -1.2553154598764449 1.5327169146280664 -1.189130895397288 1.499412804123796 C -1.2369805467437054 1.5446969798200616 -1.2598815358042388 1.674171122494259 -1.2606111664937316 1.8036688016423104 C -1.2527253047332723 1.8505782779939568 -1.2498768978247963 1.8981963824057395 -1.2521144994322184 1.945711421354868 C -1.2473927268713347 1.9920608402649145 -1.2356305081560444 2.037419193812745 -1.2172334451796902 2.080222369433951 C -1.0975034026812995 2.2664900235193177 -0.9796562780912783 2.4681740679794517 -0.9966496122143056 2.6069686543000734 C -1.3238065987933534 1.9185738670005055 -1.819837785279212 1.2606823498165087 -2.5968003236936688 1.0653296168232647 C -2.1318372826958925 1.1186632665778058 -1.5689860469368027 1.5382009130361896 -1.3095670321113158 1.9393095004664151 C -1.3091119936167934 1.928435649545586 -1.308962929282381 1.9175539531334724 -1.309119839108078 1.9066644112300741 C -1.3111439758595744 1.8856463400779093 -1.3125797007647053 1.8641104665009434 -1.313379940875762 1.8424098376069953 C -1.3311735151098456 1.6929532286302362 -1.4030539062618175 1.5446969798200616 -1.5135811874830556 1.4083737232541735 C -1.6190494248877156 1.2816073272400361 -1.7438320378823264 1.1722497832737862 -1.8833391917389437 1.084323551223933 C -1.8528444239247572 1.140850703546779 -1.8296482134307985 1.2010200760111638 -1.8143067139233793 1.2633890443097902 C -1.930788723029833 1.0992692121216092 -2.012013094302085 1.043275940821498 -2.1251999970688935 0.9545198979157723 L -2.123740735689908 0.9526369800074033 C -2.275998614240141 0.8822632922579303 -2.436531051434515 0.8313911164711616 -2.6015311549384457 0.8012268437007117 C -2.63424685359635 0.7953270342544903 -2.6670880801148122 0.790305919832174 -2.7000548344938338 0.786163500433763 C -2.6392741505927946 0.8279968858967708 -2.588730464546394 0.8830220799227706 -2.5521987057391877 0.9471294451254257 C -2.646344601157619 0.8872055826915943 -2.7756304520409794 0.7937893179626565 -2.8821329962330795 0.7739716069770761 L -2.881944704442242 0.7729360021274729 C -3.16981931615795 0.7673813942977858 -3.4562346664946717 0.8367198462734606 -3.7005197286316456 1.008489032464388 C -2.931230080693791 1.0164443606272453 -2.5771238315512175 1.3312917713803336 -2.260723013523725 1.6127409257337333 C -2.2466011292109602 1.6252937117895239 -2.232589081776184 1.6377288154760419 -2.2186868712193957 1.6500462367932864 Z M -0.8606087933346731 0.8616214356116361 L -0.7516584558616941 0.6917116308552229 L -1.101810577396694 0.37396923381801805 L -1.2384868810704015 0.48868600738537626 L -1.1417284370541085 0.3377466005557759 L -1.2369334737959972 0.25132066856165647 L -1.4864200966548395 0.47642350450712545 L -1.263106032722321 0.18753682441566966 C -1.2610166875389437 0.17872278680486353 -1.260864115312759 0.16956042311665342 -1.2626588397190828 0.16068170774756219 C -1.265135208158549 0.14829786550352875 -1.2714226445507082 0.13699858518097052 -1.2806407057440032 0.12836612914518586 C -1.2924589700375555 0.11734768674334362 -1.3081773484532895 0.11148717065299518 -1.3243244012181554 0.11207888923779752 C -1.3404407853368263 0.11262384898406186 -1.355680420643091 0.11954941658435381 -1.3666900541564493 0.13133172485086675 L -1.7415319367649325 0.5322990934379641 C -1.7525454477652063 0.5441283434964621 -1.7583974107241347 0.5598549646465774 -1.7577956401984665 0.5760063253859711 C -1.7572948917016578 0.5921183687537077 -1.7503911470478517 0.6073659029584322 -1.7386134140069611 0.6183719783242649 L -1.7386134140069611 0.6183719783242649 C -1.7329688419862515 0.623730002763458 -1.7263331270328872 0.6279352871796862 -1.7190781407076368 0.6307521635717901 C -1.6900341319710508 0.6418613792311643 -1.6383715718601866 0.6111227443770462 -1.609868902022257 0.5994251168713065 C -1.615258754534962 0.6247268262650092 -1.6317342862331876 0.6667158956216301 -1.6189304444562809 0.689922858842273 C -1.6159529561441395 0.6953086150133219 -1.6121576440963676 0.700199644765263 -1.6076800099537785 0.7044213267367123 L -1.6053263625683178 0.7065160729097721 L -1.603113934025985 0.7083283813965773 L -1.579577460171377 0.7276282899573552 L -1.5811073309719266 0.7292993796010325 L -1.381447423263289 0.9160142266896352 L -1.3604058156372694 0.935667182358233 L -1.3801529172012854 0.9568500088273804 L -1.448149790167247 1.029577713038118 L -1.4627894769048129 1.0452059316775775 L -1.4820658489917369 1.0356501232926068 C -1.4909028436089233 1.0293494213555672 -1.5026768028819353 1.029032967114237 -1.5118394884178157 1.03484988318155 C -1.531502352277215 1.052879634479328 -1.548564677961211 1.0735540402524149 -1.5625370531006402 1.0962800799420762 C -1.572375299171867 1.1102372089378587 -1.5848025573670994 1.126453839423684 -1.5989950511014284 1.1442474136577676 C -1.6107632880287324 1.15881649097377 -1.624767489972224 1.1759510439399246 -1.6405604639286655 1.1947802230236104 C -1.598459623132542 1.2316045015510162 -1.5584332406713397 1.2707351228028392 -1.520665666113294 1.3119918628195562 C -1.5041901344150683 1.2966931548140614 -1.4878793580338252 1.2819357857072227 -1.472345285289784 1.2680728026068584 C -1.4539162262616263 1.2515972709086332 -1.437393621615692 1.237310631278886 -1.4236247844107464 1.2261543426718018 C -1.4018760227913547 1.2107008268563773 -1.3823952934910455 1.1922816745085854 -1.3657485952022657 1.1714320409598389 C -1.360588268079443 1.1618773731889909 -1.3617134232576453 1.1501515824475557 -1.3685965085386735 1.1417525474291788 L -1.3793526770902287 1.1232764154533115 L -1.364642380931099 1.1075069779707247 L -1.2966455079651373 1.0348028102338414 L -1.2769690158226852 1.0137612026078218 L -1.2557861893535383 1.0335318406456926 C -1.249478414360503 1.0394159591093444 -1.0416042772766074 1.2473842420886587 -1.0068879783410614 1.258163947114069 C -0.9698886414416177 1.269696819302827 -0.870376429984336 1.1684664452541589 -0.8392376750746902 1.1467658163602108 C -0.8626564665600251 1.1816468706127394 -0.9612036825892676 1.2969755925003175 -0.9529659167401547 1.3376936922687888 L -0.9529659167401547 1.3376936922687888 C -0.9504930709296535 1.3500412876756016 -0.9442224083753001 1.3613070843119672 -0.9350311236629438 1.3699151249757469 L -0.9347957589243978 1.3699151249757469 L -0.9347957589243978 1.3699151249757469 L -0.9347957589243978 1.3699151249757469 C -0.9229856770571181 1.3808195815926356 -0.9073402335592236 1.3866072956827167 -0.8912768187672286 1.3860140730922983 C -0.8751598328827073 1.3854716818889048 -0.8599192601791277 1.3785456882936105 -0.8489111658289343 1.3667612374792282 L -0.8489111658289343 1.3665494092145378 L -0.8489111658289343 1.3665494092145378 L -0.8489111658289343 1.3665494092145378 L -0.47402221027274205 0.9657467959444221 C -0.46301682818031775 0.9539219922245628 -0.4571656665915502 0.9382059923566151 -0.4577585068392076 0.9220631004702704 C -0.4582586442347756 0.9059071247522619 -0.46517933295418734 0.8906172310698399 -0.4769878059784225 0.8795797651627031 C -0.4831890141499291 0.8737969194400934 -0.49054474497841527 0.8693931067630611 -0.49857075250309846 0.8666582410165224 C -0.5067742484032216 0.8638577885374605 -0.5154735451768366 0.862807458696591 -0.5241078266353476 0.8635749629415708 L -0.5340637550758465 0.8626805769350945 L -0.5408187230721193 0.860844731974435 L -0.7622263326224146 1.0535143069482542 L -0.599824663025621 0.8292352475876967 L -0.706633181377831 0.7322885117805678 Z M -1.5246904031424315 0.11149047739143203 L -3.1728555212851943 0.11149047739143203 L -3.1728555212851943 0.11163169623455982 C -3.1817287719283813 0.11163169623455982 -3.182717303830275 0.11149047739143203 -3.201381727596979 0.11134925854830424 C -3.269049089928976 0.11083145612350265 -3.3402469233391647 0.11029011722484672 -3.3817652632186928 0.13594487372636888 C -3.414416860620239 0.1537238142281021 -3.435355862478845 0.18732090722734007 -3.4369347579338934 0.224465551893549 C -3.437060882147352 0.23967029579821197 -3.4337035042431077 0.2547020093407131 -3.427120048336521 0.26840814858010287 C -3.4208694292155735 0.28175096208047634 -3.4115743130293343 0.2934403970067958 -3.3999824939821592 0.30253603566928255 C -3.3739408151344823 0.32165106671708443 -3.3397060449390765 0.3254957568777721 -3.310073163857558 0.31263318295290876 C -3.2951668337536755 0.3076789450323263 -3.2820084183120333 0.2985252647250958 -3.272179440951639 0.28627233223574766 C -3.2652485587058466 0.2770259898371208 -3.2620021236598253 0.2655334419997839 -3.263070825569906 0.25402736305493523 C -3.263514353139917 0.24506357258229183 -3.266280081450713 0.23636896627973147 -3.2710967631543273 0.22879626308279555 C -3.273534638823709 0.2251920176254485 -3.2768792848956423 0.22229386556797248 -3.280793790382426 0.2203937419167019 C -3.286018774440502 0.2183082021563596 -3.2916907145828502 0.21759515825274978 -3.2972693220806515 0.21832253221749465 C -3.317293639141987 0.22156922287571312 -3.336155274368479 0.2298819538647079 -3.3520622332141783 0.24247095439232336 L -3.3925449682441036 0.18485366639624434 C -3.3665316621318735 0.16495989327522587 -3.3357441170508677 0.15225688561591255 -3.303271122913576 0.14801908481378323 C -3.2855712399125263 0.14625334294630932 -3.2677177097672714 0.14915859921540164 -3.2514908804334386 0.15644514245373298 C -3.236167901114522 0.16345842469989424 -3.223008220753834 0.1744559833953918 -3.2133853292628287 0.18828999157901816 C -3.201348110562333 0.20601817397474775 -3.1941960221562846 0.22660579735470243 -3.1926496957969195 0.24797848927430266 C -3.190054302793946 0.2766433311638776 -3.198226895707875 0.30524740636263115 -3.215574221331307 0.3282143286446608 C -3.2335414223790284 0.3515483004079156 -3.2579123361720823 0.3691476985564561 -3.2857129134180383 0.37886482037977665 C -3.338045863149755 0.400485861478705 -3.397927692684439 0.3926510233030589 -3.442936558766818 0.35829394223084954 C -3.4633198646552095 0.3424716587234773 -3.4797018260963544 0.3220828887999261 -3.4907626736393813 0.29877019985254627 C -3.501940115806224 0.2753211520547243 -3.507577135269214 0.24961634330348836 -3.5072382053376066 0.22364177530863838 C -3.505769104345326 0.16230286108422742 -3.4721337093636127 0.10626175110406244 -3.418693990696572 0.0761151571879557 C -3.360088170798599 0.0398219145041514 -3.278534288892383 0.04045739929822645 -3.201075753436869 0.04104581114459105 L -3.1728319848113395 0.04104581114459105 L -3.1728319848113395 0.04118702998771884 L -1.5246668666685768 0.04118702998771884 Z M -0.7515172370185663 0.2424238814446147 C -0.7674241958642662 0.22983488091699922 -0.7862858310907579 0.22152214992800445 -0.806310148152094 0.21827545926978686 C -0.8118887665088343 0.21755333952350497 -0.8175593847638751 0.21826621724699535 -0.8227856798503188 0.22034666896899235 C -0.8266977902885277 0.22224081303074872 -0.830036229026156 0.2251406247809511 -0.8324591706045625 0.22874919013508688 C -0.8372841501958059 0.23631957957218308 -0.8400580397728108 0.2450143445620938 -0.840508644662838 0.25398029010722745 C -0.8415820721988201 0.2654904203840447 -0.8383260153426191 0.2769873221701138 -0.8313764928072507 0.286225259288039 C -0.8215575522234642 0.298478444866662 -0.8084064999817016 0.307632688813694 -0.7935063063751864 0.3125861100052001 C -0.7638734252936681 0.32544868393006254 -0.7296386550982628 0.3216039937693749 -0.7035969762505849 0.302488962721573 C -0.6919965834494892 0.29339600838539415 -0.682693233188687 0.2817063568445244 -0.676435885422368 0.2683610756323924 C -0.6698486139038664 0.25465714317081023 -0.666498680873719 0.23962270815329934 -0.6666447122988512 0.22441847894584033 C -0.6681865803388867 0.18726239437833136 -0.6891360294680497 0.15364853850171745 -0.7218142070140514 0.1358978007786602 C -0.7632619374720155 0.11024304427713805 -0.8345774532514771 0.11078438317579398 -0.9023154250050385 0.11130218560059557 C -0.920885702876324 0.11144340444372336 -0.9218742347782176 0.11158462328685026 -0.9307004124736955 0.11158462328685026 L -0.9307004124736955 0.11144340444372336 L -1.1339378642082334 0.11144340444372336 L -1.1339378642082334 0.04109288409230061 L -0.9307004124736955 0.04109288409230061 L -0.9307004124736955 0.04095166524917282 L -0.902597862691294 0.04095166524917282 C -0.8250922542880703 0.040339716928952996 -0.7435148359079999 0.039704232134878836 -0.684838406588463 0.07602101129253835 C -0.6313986879214215 0.1061676052086451 -0.5977632929397085 0.1622087151888092 -0.5962941919474285 0.22354762941322015 C -0.595977903248269 0.2495198883299441 -0.6016138112073128 0.2752196286231854 -0.6127697236456529 0.29867605395712715 C -0.6238372958000271 0.32199122111115486 -0.640227493982982 0.342380208422858 -0.6606193749920712 0.3581997963354313 C -0.7056190428575242 0.39255732496425466 -0.7654944746851 0.40039249900487484 -0.8178194838669968 0.37877067448435753 C -0.845626424700431 0.3690657542095668 -0.8700005560243245 0.3514640325286882 -0.887958175953727 0.3281201827492417 C -0.9053157974289725 0.30515839615175366 -0.913489549443895 0.27655026409952477 -0.9108827014881147 0.24788434337888443 C -0.9093539770424779 0.22650802686608174 -0.902200344736872 0.20591595929852602 -0.8901470680222046 0.18819584568359993 C -0.880539226608076 0.17435722614067561 -0.8673856402058235 0.163357966312339 -0.8520650533254499 0.15635099655831475 C -0.8358369518465136 0.149068691230843 -0.8179845566894399 0.14616361965528224 -0.8002848108453131 0.147924938918365 C -0.7678141114922932 0.15217134478392147 -0.7370287124376023 0.1648734669881371 -0.7110109655147858 0.1847595205008261 Z M -0.5711337013968527 1.318770367289682 L -0.5720045509294733 2.1384751422241064 C -0.5725223533542745 2.630387445785409 -0.9696297402292173 2.7732773785567324 -1.3659604234669573 2.915814264220237 C -1.618789225613154 3.006735662720587 -1.871288517125386 3.0975393788516636 -2.005987756995306 3.280417780701966 L -2.016673316125298 3.2948927121225493 L -2.053390215338486 3.2948927121225493 L -2.0640757744684777 3.280417780701966 C -2.198775014338398 3.0975393788516636 -2.4512743058506303 3.006735662720587 -2.7041031079968265 2.9158378006940917 C -3.100339645339148 2.7732773785567333 -3.4973528863186716 2.630481591680828 -3.4979648346388914 2.138380996328689 L -3.499023975962349 1.1886136668737017 L -3.428696992084781 1.1886136668737017 L -3.4276378507613234 2.138380996328689 C -3.4271671212842314 2.580866704795315 -3.05340791647306 2.7153541164005435 -2.680284196455963 2.8495355538456626 C -2.4331512209825816 2.9384563520683704 -2.1860182455092003 3.0272594679218057 -2.034937619836473 3.2037594853575095 C -1.8837863847421819 3.027235931447951 -1.6368417010596374 2.9384563520683704 -1.3895910432169827 2.849512017371808 C -1.016514396147595 2.7153541164005435 -0.6427081183887151 2.5808902412691697 -0.6422373889116226 2.138380996328689 L -0.641366539379002 1.3186762213942642 Z M -3.623390703810096 0.7714532042746338 L -3.6242850898165715 -0.046980601071641814 L -3.6242850898165715 -0.08228531185355337 L -0.44556661338252024 -0.08228531185355337 L -0.44556661338252024 -0.046980601071641814 L -0.4463903899674313 0.6859687312346985 L -0.5167173738449993 0.6859687312346985 L -0.5159642066816517 -0.011652353815875927 L -3.5538404235697305 -0.011652353815875927 L -3.55296957403711 0.7714532042746329 Z" fill="#d3d3d3" transform="matrix(1,0,0,1,0,0)" fill-rule="nonzero"></path></g></g><defs><clipPath id="SvgjsClipPath1001"><path d=" M -3.8620740851696738 -0.08228531185355337 h 3.462074085169674 v 3.536308123707107 h -3.462074085169674 Z"></path></clipPath></defs></svg>